<svg xmlns="http://www.w3.org/2000/svg" width="160" height="160"><!-- Notches=15, Radius=71.62 --><path style="stroke:#999;stroke-width:3;fill:#f5f5f5" d="M 80.0 20.380275608647096 A 59.62 59.62 0 0 1 87.47 20.85 L 94.89 9.95 A 71.62 71.62 0 0 1 103.55 12.36 L 104.25 25.53 A 59.62 59.62 0 0 1 110.88 29.00 L 122.10 22.06 A 71.62 71.62 0 0 1 129.03 27.79 L 124.31 40.11 A 59.62 59.62 0 0 1 128.96 45.97 L 142.02 44.19 A 71.62 71.62 0 0 1 146.02 52.25 L 136.70 61.58 A 59.62 59.62 0 0 1 138.56 68.83 L 151.23 72.51 A 71.62 71.62 0 0 1 151.60 81.50 L 139.29 86.23 A 59.62 59.62 0 0 1 138.04 93.61 L 148.11 102.13 A 71.62 71.62 0 0 1 144.80 110.49 L 131.63 109.81 A 59.62 59.62 0 0 1 127.49 116.05 L 133.22 127.92 A 71.62 71.62 0 0 1 126.80 134.22 L 115.04 128.23 A 59.62 59.62 0 0 1 108.72 132.25 L 109.13 145.43 A 71.62 71.62 0 0 1 100.70 148.56 L 92.40 138.32 A 59.62 59.62 0 0 1 84.99 139.41 L 80.00 151.62 A 71.62 71.62 0 0 1 71.02 151.05 L 67.60 138.32 A 59.62 59.62 0 0 1 60.39 136.30 L 50.87 145.43 A 71.62 71.62 0 0 1 42.90 141.26 L 44.96 128.23 A 59.62 59.62 0 0 1 39.19 123.46 L 26.78 127.92 A 71.62 71.62 0 0 1 21.19 120.87 L 28.37 109.81 A 59.62 59.62 0 0 1 25.04 103.10 L 11.89 102.13 A 71.62 71.62 0 0 1 9.65 93.42 L 20.71 86.23 A 59.62 59.62 0 0 1 20.39 78.75 L 8.77 72.51 A 71.62 71.62 0 0 1 10.27 63.65 L 23.30 61.58 A 59.62 59.62 0 0 1 26.05 54.62 L 17.98 44.19 A 71.62 71.62 0 0 1 22.95 36.70 L 35.69 40.11 A 59.62 59.62 0 0 1 41.04 34.87 L 37.90 22.06 A 71.62 71.62 0 0 1 45.50 17.24 L 55.75 25.53 A 59.62 59.62 0 0 1 62.77 22.92 L 65.11 9.95 A 71.62 71.62 0 0 1 74.01 8.63 Z M 80 65 A 15 15 0 0 0 80 95 A 15 15 0 0 0 80 65"/></svg>