<svg xmlns="http://www.w3.org/2000/svg" width="320" height="320"><!-- Notches=32, Radius=152.79 --><path style="stroke:#999;stroke-width:3;fill:#f5f5f5" d="M 160.0 19.211254631780463 A 140.79 140.79 0 0 1 168.29 19.46 L 174.98 7.95 A 152.79 152.79 0 0 1 183.90 9.09 L 187.47 21.92 A 140.79 140.79 0 0 1 195.55 23.77 L 204.35 13.79 A 152.79 152.79 0 0 1 212.88 16.65 L 213.88 29.93 A 140.79 140.79 0 0 1 221.44 33.33 L 232.02 25.25 A 152.79 152.79 0 0 1 239.83 29.73 L 238.22 42.94 A 140.79 140.79 0 0 1 244.97 47.75 L 256.93 41.89 A 152.79 152.79 0 0 1 263.71 47.80 L 259.55 60.45 A 140.79 140.79 0 0 1 265.24 66.48 L 278.11 63.07 A 152.79 152.79 0 0 1 283.61 70.19 L 277.06 81.78 A 140.79 140.79 0 0 1 281.46 88.81 L 294.75 87.98 A 152.79 152.79 0 0 1 298.75 96.03 L 290.07 106.12 A 140.79 140.79 0 0 1 293.02 113.87 L 306.21 115.65 A 152.79 152.79 0 0 1 308.57 124.33 L 298.08 132.53 A 140.79 140.79 0 0 1 299.46 140.71 L 312.05 145.02 A 152.79 152.79 0 0 1 312.67 154.00 L 300.79 160.00 A 140.79 140.79 0 0 1 300.54 168.29 L 312.05 174.98 A 152.79 152.79 0 0 1 310.91 183.90 L 298.08 187.47 A 140.79 140.79 0 0 1 296.23 195.55 L 306.21 204.35 A 152.79 152.79 0 0 1 303.35 212.88 L 290.07 213.88 A 140.79 140.79 0 0 1 286.67 221.44 L 294.75 232.02 A 152.79 152.79 0 0 1 290.27 239.83 L 277.06 238.22 A 140.79 140.79 0 0 1 272.25 244.97 L 278.11 256.93 A 152.79 152.79 0 0 1 272.20 263.71 L 259.55 259.55 A 140.79 140.79 0 0 1 253.52 265.24 L 256.93 278.11 A 152.79 152.79 0 0 1 249.81 283.61 L 238.22 277.06 A 140.79 140.79 0 0 1 231.19 281.46 L 232.02 294.75 A 152.79 152.79 0 0 1 223.97 298.75 L 213.88 290.07 A 140.79 140.79 0 0 1 206.13 293.02 L 204.35 306.21 A 152.79 152.79 0 0 1 195.67 308.57 L 187.47 298.08 A 140.79 140.79 0 0 1 179.29 299.46 L 174.98 312.05 A 152.79 152.79 0 0 1 166.00 312.67 L 160.00 300.79 A 140.79 140.79 0 0 1 151.71 300.54 L 145.02 312.05 A 152.79 152.79 0 0 1 136.10 310.91 L 132.53 298.08 A 140.79 140.79 0 0 1 124.45 296.23 L 115.65 306.21 A 152.79 152.79 0 0 1 107.12 303.35 L 106.12 290.07 A 140.79 140.79 0 0 1 98.56 286.67 L 87.98 294.75 A 152.79 152.79 0 0 1 80.17 290.27 L 81.78 277.06 A 140.79 140.79 0 0 1 75.03 272.25 L 63.07 278.11 A 152.79 152.79 0 0 1 56.29 272.20 L 60.45 259.55 A 140.79 140.79 0 0 1 54.76 253.52 L 41.89 256.93 A 152.79 152.79 0 0 1 36.39 249.81 L 42.94 238.22 A 140.79 140.79 0 0 1 38.54 231.19 L 25.25 232.02 A 152.79 152.79 0 0 1 21.25 223.97 L 29.93 213.88 A 140.79 140.79 0 0 1 26.98 206.13 L 13.79 204.35 A 152.79 152.79 0 0 1 11.43 195.67 L 21.92 187.47 A 140.79 140.79 0 0 1 20.54 179.29 L 7.95 174.98 A 152.79 152.79 0 0 1 7.33 166.00 L 19.21 160.00 A 140.79 140.79 0 0 1 19.46 151.71 L 7.95 145.02 A 152.79 152.79 0 0 1 9.09 136.10 L 21.92 132.53 A 140.79 140.79 0 0 1 23.77 124.45 L 13.79 115.65 A 152.79 152.79 0 0 1 16.65 107.12 L 29.93 106.12 A 140.79 140.79 0 0 1 33.33 98.56 L 25.25 87.98 A 152.79 152.79 0 0 1 29.73 80.17 L 42.94 81.78 A 140.79 140.79 0 0 1 47.75 75.03 L 41.89 63.07 A 152.79 152.79 0 0 1 47.80 56.29 L 60.45 60.45 A 140.79 140.79 0 0 1 66.48 54.76 L 63.07 41.89 A 152.79 152.79 0 0 1 70.19 36.39 L 81.78 42.94 A 140.79 140.79 0 0 1 88.81 38.54 L 87.98 25.25 A 152.79 152.79 0 0 1 96.03 21.25 L 106.12 29.93 A 140.79 140.79 0 0 1 113.87 26.98 L 115.65 13.79 A 152.79 152.79 0 0 1 124.33 11.43 L 132.53 21.92 A 140.79 140.79 0 0 1 140.71 20.54 L 145.02 7.95 A 152.79 152.79 0 0 1 154.00 7.33 Z M 160 145 A 15 15 0 0 0 160 175 A 15 15 0 0 0 160 145 M 170.00 111.01 A 50.00 50.00 0 0 1 197.43 126.84 L 259.25 91.15 A 120.79 120.79 0 0 0 170.00 39.63 Z M 207.43 144.17 A 50.00 50.00 0 0 1 207.43 175.83 L 269.25 211.53 A 120.79 120.79 0 0 0 269.25 108.47 Z M 197.43 193.16 A 50.00 50.00 0 0 1 170.00 208.99 L 170.00 280.37 A 120.79 120.79 0 0 0 259.25 228.85 Z M 150.00 208.99 A 50.00 50.00 0 0 1 122.57 193.16 L 60.75 228.85 A 120.79 120.79 0 0 0 150.00 280.37 Z M 112.57 175.83 A 50.00 50.00 0 0 1 112.57 144.17 L 50.75 108.47 A 120.79 120.79 0 0 0 50.75 211.53 Z M 122.57 126.84 A 50.00 50.00 0 0 1 150.00 111.01 L 150.00 39.63 A 120.79 120.79 0 0 0 60.75 91.15 Z"/></svg>