<svg xmlns="http://www.w3.org/2000/svg" width="180" height="180"><!-- Notches=18, Radius=85.94 --><path style="stroke:#999;stroke-width:3;fill:#f5f5f5" d="M 90.0 16.056330730376516 A 73.94 73.94 0 0 1 97.73 16.46 L 104.92 5.36 A 85.94 85.94 0 0 1 113.69 7.39 L 115.29 20.52 A 73.94 73.94 0 0 1 122.41 23.54 L 132.97 15.57 A 85.94 85.94 0 0 1 140.52 20.47 L 137.53 33.36 A 73.94 73.94 0 0 1 143.19 38.63 L 155.84 34.76 A 85.94 85.94 0 0 1 161.25 41.94 L 154.04 53.03 A 73.94 73.94 0 0 1 157.55 59.92 L 170.76 60.61 A 85.94 85.94 0 0 1 173.39 69.21 L 162.82 77.16 A 73.94 73.94 0 0 1 163.76 84.84 L 175.94 90.00 A 85.94 85.94 0 0 1 175.47 98.98 L 162.82 102.84 A 73.94 73.94 0 0 1 161.08 110.38 L 170.76 119.39 A 85.94 85.94 0 0 1 167.25 127.68 L 154.04 126.97 A 73.94 73.94 0 0 1 149.82 133.46 L 155.84 145.24 A 85.94 85.94 0 0 1 149.70 151.82 L 137.53 146.64 A 73.94 73.94 0 0 1 131.35 151.30 L 132.97 164.43 A 85.94 85.94 0 0 1 124.96 168.51 L 115.29 159.48 A 73.94 73.94 0 0 1 107.89 161.75 L 104.92 174.64 A 85.94 85.94 0 0 1 96.00 175.73 L 90.00 163.94 A 73.94 73.94 0 0 1 82.27 163.54 L 75.08 174.64 A 85.94 85.94 0 0 1 66.31 172.61 L 64.71 159.48 A 73.94 73.94 0 0 1 57.59 156.46 L 47.03 164.43 A 85.94 85.94 0 0 1 39.48 159.53 L 42.47 146.64 A 73.94 73.94 0 0 1 36.81 141.37 L 24.16 145.24 A 85.94 85.94 0 0 1 18.75 138.06 L 25.96 126.97 A 73.94 73.94 0 0 1 22.45 120.08 L 9.24 119.39 A 85.94 85.94 0 0 1 6.61 110.79 L 17.18 102.84 A 73.94 73.94 0 0 1 16.24 95.16 L 4.06 90.00 A 85.94 85.94 0 0 1 4.53 81.02 L 17.18 77.16 A 73.94 73.94 0 0 1 18.92 69.62 L 9.24 60.61 A 85.94 85.94 0 0 1 12.75 52.32 L 25.96 53.03 A 73.94 73.94 0 0 1 30.18 46.54 L 24.16 34.76 A 85.94 85.94 0 0 1 30.30 28.18 L 42.47 33.36 A 73.94 73.94 0 0 1 48.65 28.70 L 47.03 15.57 A 85.94 85.94 0 0 1 55.04 11.49 L 64.71 20.52 A 73.94 73.94 0 0 1 72.11 18.25 L 75.08 5.36 A 85.94 85.94 0 0 1 84.00 4.27 Z M 90 75 A 15 15 0 0 0 90 105 A 15 15 0 0 0 90 75 M 100.00 56.46 A 35.00 35.00 0 0 1 123.54 80.00 L 148.09 80.00 A 58.94 58.94 0 0 0 100.00 31.91 Z M 123.54 100.00 A 35.00 35.00 0 0 1 100.00 123.54 L 100.00 148.09 A 58.94 58.94 0 0 0 148.09 100.00 Z M 80.00 123.54 A 35.00 35.00 0 0 1 56.46 100.00 L 31.91 100.00 A 58.94 58.94 0 0 0 80.00 148.09 Z M 56.46 80.00 A 35.00 35.00 0 0 1 80.00 56.46 L 80.00 31.91 A 58.94 58.94 0 0 0 31.91 80.00 Z"/></svg>