<svg xmlns="http://www.w3.org/2000/svg" width="280" height="280"><!-- Notches=28, Radius=133.69 --><path style="stroke:#999;stroke-width:3;fill:#f5f5f5" d="M 140.0 18.309847802807923 A 121.69 121.69 0 0 1 148.19 18.59 L 154.97 7.15 A 133.69 133.69 0 0 1 163.87 8.46 L 167.08 21.36 A 121.69 121.69 0 0 1 175.00 23.45 L 184.16 13.81 A 133.69 133.69 0 0 1 192.54 17.07 L 192.80 30.36 A 121.69 121.69 0 0 1 200.06 34.16 L 211.13 26.80 A 133.69 133.69 0 0 1 218.58 31.84 L 215.87 44.86 A 121.69 121.69 0 0 1 222.10 50.18 L 234.53 45.47 A 133.69 133.69 0 0 1 240.68 52.04 L 235.14 64.13 A 121.69 121.69 0 0 1 240.03 70.70 L 253.20 68.87 A 133.69 133.69 0 0 1 257.73 76.65 L 249.64 87.20 A 121.69 121.69 0 0 1 252.94 94.70 L 266.19 95.84 A 133.69 133.69 0 0 1 268.87 104.43 L 258.64 112.92 A 121.69 121.69 0 0 1 260.19 120.96 L 272.85 125.03 A 133.69 133.69 0 0 1 273.56 134.00 L 261.69 140.00 A 121.69 121.69 0 0 1 261.41 148.19 L 272.85 154.97 A 133.69 133.69 0 0 1 271.54 163.87 L 258.64 167.08 A 121.69 121.69 0 0 1 256.55 175.00 L 266.19 184.16 A 133.69 133.69 0 0 1 262.93 192.54 L 249.64 192.80 A 121.69 121.69 0 0 1 245.84 200.06 L 253.20 211.13 A 133.69 133.69 0 0 1 248.16 218.58 L 235.14 215.87 A 121.69 121.69 0 0 1 229.82 222.10 L 234.53 234.53 A 133.69 133.69 0 0 1 227.96 240.68 L 215.87 235.14 A 121.69 121.69 0 0 1 209.30 240.03 L 211.13 253.20 A 133.69 133.69 0 0 1 203.35 257.73 L 192.80 249.64 A 121.69 121.69 0 0 1 185.30 252.94 L 184.16 266.19 A 133.69 133.69 0 0 1 175.57 268.87 L 167.08 258.64 A 121.69 121.69 0 0 1 159.04 260.19 L 154.97 272.85 A 133.69 133.69 0 0 1 146.00 273.56 L 140.00 261.69 A 121.69 121.69 0 0 1 131.81 261.41 L 125.03 272.85 A 133.69 133.69 0 0 1 116.13 271.54 L 112.92 258.64 A 121.69 121.69 0 0 1 105.00 256.55 L 95.84 266.19 A 133.69 133.69 0 0 1 87.46 262.93 L 87.20 249.64 A 121.69 121.69 0 0 1 79.94 245.84 L 68.87 253.20 A 133.69 133.69 0 0 1 61.42 248.16 L 64.13 235.14 A 121.69 121.69 0 0 1 57.90 229.82 L 45.47 234.53 A 133.69 133.69 0 0 1 39.32 227.96 L 44.86 215.87 A 121.69 121.69 0 0 1 39.97 209.30 L 26.80 211.13 A 133.69 133.69 0 0 1 22.27 203.35 L 30.36 192.80 A 121.69 121.69 0 0 1 27.06 185.30 L 13.81 184.16 A 133.69 133.69 0 0 1 11.13 175.57 L 21.36 167.08 A 121.69 121.69 0 0 1 19.81 159.04 L 7.15 154.97 A 133.69 133.69 0 0 1 6.44 146.00 L 18.31 140.00 A 121.69 121.69 0 0 1 18.59 131.81 L 7.15 125.03 A 133.69 133.69 0 0 1 8.46 116.13 L 21.36 112.92 A 121.69 121.69 0 0 1 23.45 105.00 L 13.81 95.84 A 133.69 133.69 0 0 1 17.07 87.46 L 30.36 87.20 A 121.69 121.69 0 0 1 34.16 79.94 L 26.80 68.87 A 133.69 133.69 0 0 1 31.84 61.42 L 44.86 64.13 A 121.69 121.69 0 0 1 50.18 57.90 L 45.47 45.47 A 133.69 133.69 0 0 1 52.04 39.32 L 64.13 44.86 A 121.69 121.69 0 0 1 70.70 39.97 L 68.87 26.80 A 133.69 133.69 0 0 1 76.65 22.27 L 87.20 30.36 A 121.69 121.69 0 0 1 94.70 27.06 L 95.84 13.81 A 133.69 133.69 0 0 1 104.43 11.13 L 112.92 21.36 A 121.69 121.69 0 0 1 120.96 19.81 L 125.03 7.15 A 133.69 133.69 0 0 1 134.00 6.44 Z M 140 125 A 15 15 0 0 0 140 155 A 15 15 0 0 0 140 125 M 150.00 96.13 A 45.00 45.00 0 0 1 173.00 109.40 L 222.64 80.74 A 101.69 101.69 0 0 0 150.00 38.80 Z M 183.00 126.72 A 45.00 45.00 0 0 1 183.00 153.28 L 232.64 181.94 A 101.69 101.69 0 0 0 232.64 98.06 Z M 173.00 170.60 A 45.00 45.00 0 0 1 150.00 183.87 L 150.00 241.20 A 101.69 101.69 0 0 0 222.64 199.26 Z M 130.00 183.87 A 45.00 45.00 0 0 1 107.00 170.60 L 57.36 199.26 A 101.69 101.69 0 0 0 130.00 241.20 Z M 97.00 153.28 A 45.00 45.00 0 0 1 97.00 126.72 L 47.36 98.06 A 101.69 101.69 0 0 0 47.36 181.94 Z M 107.00 109.40 A 45.00 45.00 0 0 1 130.00 96.13 L 130.00 38.80 A 101.69 101.69 0 0 0 57.36 80.74 Z"/></svg>