<svg xmlns="http://www.w3.org/2000/svg" width="220" height="220"><!-- Notches=22, Radius=105.04 --><path style="stroke:#999;stroke-width:3;fill:#f5f5f5" d="M 110.0 16.95773755934907 A 93.04 93.04 0 0 1 117.96 17.30 L 124.95 6.03 A 105.04 105.04 0 0 1 133.79 7.69 L 136.21 20.73 A 93.04 93.04 0 0 1 143.76 23.30 L 153.64 14.45 A 105.04 105.04 0 0 1 161.65 18.53 L 160.30 31.73 A 93.04 93.04 0 0 1 166.82 36.32 L 178.79 30.61 A 105.04 105.04 0 0 1 185.33 36.79 L 180.32 49.07 A 93.04 93.04 0 0 1 185.27 55.31 L 198.37 53.21 A 105.04 105.04 0 0 1 202.90 60.98 L 194.63 71.35 A 93.04 93.04 0 0 1 197.63 78.73 L 210.79 80.41 A 105.04 105.04 0 0 1 212.95 89.14 L 202.10 96.76 A 93.04 93.04 0 0 1 202.89 104.69 L 215.04 110.00 A 105.04 105.04 0 0 1 214.66 118.99 L 202.10 123.24 A 93.04 93.04 0 0 1 200.62 131.07 L 210.79 139.59 A 105.04 105.04 0 0 1 207.89 148.11 L 194.63 148.65 A 93.04 93.04 0 0 1 191.02 155.75 L 198.37 166.79 A 105.04 105.04 0 0 1 193.18 174.14 L 180.32 170.93 A 93.04 93.04 0 0 1 174.84 176.72 L 178.79 189.39 A 105.04 105.04 0 0 1 171.74 194.98 L 160.30 188.27 A 93.04 93.04 0 0 1 153.42 192.29 L 153.64 205.55 A 105.04 105.04 0 0 1 145.30 208.93 L 136.21 199.27 A 93.04 93.04 0 0 1 128.48 201.19 L 124.95 213.97 A 105.04 105.04 0 0 1 116.00 214.87 L 110.00 203.04 A 93.04 93.04 0 0 1 102.04 202.70 L 95.05 213.97 A 105.04 105.04 0 0 1 86.21 212.31 L 83.79 199.27 A 93.04 93.04 0 0 1 76.24 196.70 L 66.36 205.55 A 105.04 105.04 0 0 1 58.35 201.47 L 59.70 188.27 A 93.04 93.04 0 0 1 53.18 183.68 L 41.21 189.39 A 105.04 105.04 0 0 1 34.67 183.21 L 39.68 170.93 A 93.04 93.04 0 0 1 34.73 164.69 L 21.63 166.79 A 105.04 105.04 0 0 1 17.10 159.02 L 25.37 148.65 A 93.04 93.04 0 0 1 22.37 141.27 L 9.21 139.59 A 105.04 105.04 0 0 1 7.05 130.86 L 17.90 123.24 A 93.04 93.04 0 0 1 17.11 115.31 L 4.96 110.00 A 105.04 105.04 0 0 1 5.34 101.01 L 17.90 96.76 A 93.04 93.04 0 0 1 19.38 88.93 L 9.21 80.41 A 105.04 105.04 0 0 1 12.11 71.89 L 25.37 71.35 A 93.04 93.04 0 0 1 28.98 64.25 L 21.63 53.21 A 105.04 105.04 0 0 1 26.82 45.86 L 39.68 49.07 A 93.04 93.04 0 0 1 45.16 43.28 L 41.21 30.61 A 105.04 105.04 0 0 1 48.26 25.02 L 59.70 31.73 A 93.04 93.04 0 0 1 66.58 27.71 L 66.36 14.45 A 105.04 105.04 0 0 1 74.70 11.07 L 83.79 20.73 A 93.04 93.04 0 0 1 91.52 18.81 L 95.05 6.03 A 105.04 105.04 0 0 1 104.00 5.13 Z M 110 95 A 15 15 0 0 0 110 125 A 15 15 0 0 0 110 95 M 120.00 71.27 A 40.00 40.00 0 0 1 148.73 100.00 L 187.40 100.00 A 78.04 78.04 0 0 0 120.00 32.60 Z M 148.73 120.00 A 40.00 40.00 0 0 1 120.00 148.73 L 120.00 187.40 A 78.04 78.04 0 0 0 187.40 120.00 Z M 100.00 148.73 A 40.00 40.00 0 0 1 71.27 120.00 L 32.60 120.00 A 78.04 78.04 0 0 0 100.00 187.40 Z M 71.27 100.00 A 40.00 40.00 0 0 1 100.00 71.27 L 100.00 32.60 A 78.04 78.04 0 0 0 32.60 100.00 Z"/></svg>