<svg xmlns="http://www.w3.org/2000/svg" width="120" height="120"><!-- Notches=12, Radius=57.30 --><path style="stroke:#999;stroke-width:3;fill:#f5f5f5" d="M 60.0 14.704220486917677 A 45.30 45.30 0 0 1 67.09 15.26 L 74.83 4.66 A 57.30 57.30 0 0 1 83.30 7.66 L 82.65 20.77 A 45.30 45.30 0 0 1 88.51 24.80 L 100.51 19.49 A 57.30 57.30 0 0 1 106.35 26.32 L 99.23 37.35 A 45.30 45.30 0 0 1 102.29 43.77 L 115.34 45.17 A 57.30 57.30 0 0 1 116.98 54.01 L 105.30 60.00 A 45.30 45.30 0 0 1 104.74 67.09 L 115.34 74.83 A 57.30 57.30 0 0 1 112.34 83.30 L 99.23 82.65 A 45.30 45.30 0 0 1 95.20 88.51 L 100.51 100.51 A 57.30 57.30 0 0 1 93.68 106.35 L 82.65 99.23 A 45.30 45.30 0 0 1 76.23 102.29 L 74.83 115.34 A 57.30 57.30 0 0 1 65.99 116.98 L 60.00 105.30 A 45.30 45.30 0 0 1 52.91 104.74 L 45.17 115.34 A 57.30 57.30 0 0 1 36.70 112.34 L 37.35 99.23 A 45.30 45.30 0 0 1 31.49 95.20 L 19.49 100.51 A 57.30 57.30 0 0 1 13.65 93.68 L 20.77 82.65 A 45.30 45.30 0 0 1 17.71 76.23 L 4.66 74.83 A 57.30 57.30 0 0 1 3.02 65.99 L 14.70 60.00 A 45.30 45.30 0 0 1 15.26 52.91 L 4.66 45.17 A 57.30 57.30 0 0 1 7.66 36.70 L 20.77 37.35 A 45.30 45.30 0 0 1 24.80 31.49 L 19.49 19.49 A 57.30 57.30 0 0 1 26.32 13.65 L 37.35 20.77 A 45.30 45.30 0 0 1 43.77 17.71 L 45.17 4.66 A 57.30 57.30 0 0 1 54.01 3.02 Z M 60 45 A 15 15 0 0 0 60 75 A 15 15 0 0 0 60 45"/></svg>