<svg xmlns="http://www.w3.org/2000/svg" width="360" height="360"><!-- Notches=36, Radius=171.89 --><path style="stroke:#999;stroke-width:3;fill:#f5f5f5" d="M 180.0 20.11266146075303 A 159.89 159.89 0 0 1 188.37 20.33 L 194.98 8.77 A 171.89 171.89 0 0 1 203.92 9.79 L 207.76 22.54 A 159.89 159.89 0 0 1 215.97 24.21 L 224.49 13.97 A 171.89 171.89 0 0 1 233.12 16.53 L 234.68 29.76 A 159.89 159.89 0 0 1 242.47 32.82 L 252.64 24.22 A 171.89 171.89 0 0 1 260.70 28.23 L 259.94 41.53 A 159.89 159.89 0 0 1 267.08 45.91 L 278.59 39.20 A 171.89 171.89 0 0 1 285.82 44.55 L 282.77 57.52 A 159.89 159.89 0 0 1 289.04 63.07 L 301.54 58.46 A 171.89 171.89 0 0 1 307.74 64.98 L 302.48 77.23 A 159.89 159.89 0 0 1 307.69 83.78 L 320.80 81.41 A 171.89 171.89 0 0 1 325.77 88.91 L 318.47 100.06 A 159.89 159.89 0 0 1 322.46 107.41 L 335.78 107.36 A 171.89 171.89 0 0 1 339.37 115.61 L 330.24 125.32 A 159.89 159.89 0 0 1 332.90 133.25 L 346.03 135.51 A 171.89 171.89 0 0 1 348.13 144.26 L 337.46 152.24 A 159.89 159.89 0 0 1 338.70 160.51 L 351.23 165.02 A 171.89 171.89 0 0 1 351.78 174.00 L 339.89 180.00 A 159.89 159.89 0 0 1 339.67 188.37 L 351.23 194.98 A 171.89 171.89 0 0 1 350.21 203.92 L 337.46 207.76 A 159.89 159.89 0 0 1 335.79 215.97 L 346.03 224.49 A 171.89 171.89 0 0 1 343.47 233.12 L 330.24 234.68 A 159.89 159.89 0 0 1 327.18 242.47 L 335.78 252.64 A 171.89 171.89 0 0 1 331.77 260.70 L 318.47 259.94 A 159.89 159.89 0 0 1 314.09 267.08 L 320.80 278.59 A 171.89 171.89 0 0 1 315.45 285.82 L 302.48 282.77 A 159.89 159.89 0 0 1 296.93 289.04 L 301.54 301.54 A 171.89 171.89 0 0 1 295.02 307.74 L 282.77 302.48 A 159.89 159.89 0 0 1 276.22 307.69 L 278.59 320.80 A 171.89 171.89 0 0 1 271.09 325.77 L 259.94 318.47 A 159.89 159.89 0 0 1 252.59 322.46 L 252.64 335.78 A 171.89 171.89 0 0 1 244.39 339.37 L 234.68 330.24 A 159.89 159.89 0 0 1 226.75 332.90 L 224.49 346.03 A 171.89 171.89 0 0 1 215.74 348.13 L 207.76 337.46 A 159.89 159.89 0 0 1 199.49 338.70 L 194.98 351.23 A 171.89 171.89 0 0 1 186.00 351.78 L 180.00 339.89 A 159.89 159.89 0 0 1 171.63 339.67 L 165.02 351.23 A 171.89 171.89 0 0 1 156.08 350.21 L 152.24 337.46 A 159.89 159.89 0 0 1 144.03 335.79 L 135.51 346.03 A 171.89 171.89 0 0 1 126.88 343.47 L 125.32 330.24 A 159.89 159.89 0 0 1 117.53 327.18 L 107.36 335.78 A 171.89 171.89 0 0 1 99.30 331.77 L 100.06 318.47 A 159.89 159.89 0 0 1 92.92 314.09 L 81.41 320.80 A 171.89 171.89 0 0 1 74.18 315.45 L 77.23 302.48 A 159.89 159.89 0 0 1 70.96 296.93 L 58.46 301.54 A 171.89 171.89 0 0 1 52.26 295.02 L 57.52 282.77 A 159.89 159.89 0 0 1 52.31 276.22 L 39.20 278.59 A 171.89 171.89 0 0 1 34.23 271.09 L 41.53 259.94 A 159.89 159.89 0 0 1 37.54 252.59 L 24.22 252.64 A 171.89 171.89 0 0 1 20.63 244.39 L 29.76 234.68 A 159.89 159.89 0 0 1 27.10 226.75 L 13.97 224.49 A 171.89 171.89 0 0 1 11.87 215.74 L 22.54 207.76 A 159.89 159.89 0 0 1 21.30 199.49 L 8.77 194.98 A 171.89 171.89 0 0 1 8.22 186.00 L 20.11 180.00 A 159.89 159.89 0 0 1 20.33 171.63 L 8.77 165.02 A 171.89 171.89 0 0 1 9.79 156.08 L 22.54 152.24 A 159.89 159.89 0 0 1 24.21 144.03 L 13.97 135.51 A 171.89 171.89 0 0 1 16.53 126.88 L 29.76 125.32 A 159.89 159.89 0 0 1 32.82 117.53 L 24.22 107.36 A 171.89 171.89 0 0 1 28.23 99.30 L 41.53 100.06 A 159.89 159.89 0 0 1 45.91 92.92 L 39.20 81.41 A 171.89 171.89 0 0 1 44.55 74.18 L 57.52 77.23 A 159.89 159.89 0 0 1 63.07 70.96 L 58.46 58.46 A 171.89 171.89 0 0 1 64.98 52.26 L 77.23 57.52 A 159.89 159.89 0 0 1 83.78 52.31 L 81.41 39.20 A 171.89 171.89 0 0 1 88.91 34.23 L 100.06 41.53 A 159.89 159.89 0 0 1 107.41 37.54 L 107.36 24.22 A 171.89 171.89 0 0 1 115.61 20.63 L 125.32 29.76 A 159.89 159.89 0 0 1 133.25 27.10 L 135.51 13.97 A 171.89 171.89 0 0 1 144.26 11.87 L 152.24 22.54 A 159.89 159.89 0 0 1 160.51 21.30 L 165.02 8.77 A 171.89 171.89 0 0 1 174.00 8.22 Z M 180 165 A 15 15 0 0 0 180 195 A 15 15 0 0 0 180 165 M 191.00 126.11 A 55.00 55.00 0 0 1 210.33 134.12 L 269.41 75.03 A 137.89 137.89 0 0 0 191.00 42.55 Z M 225.88 149.67 A 55.00 55.00 0 0 1 233.89 169.00 L 317.45 169.00 A 137.89 137.89 0 0 0 284.97 90.59 Z M 233.89 191.00 A 55.00 55.00 0 0 1 225.88 210.33 L 284.97 269.41 A 137.89 137.89 0 0 0 317.45 191.00 Z M 210.33 225.88 A 55.00 55.00 0 0 1 191.00 233.89 L 191.00 317.45 A 137.89 137.89 0 0 0 269.41 284.97 Z M 169.00 233.89 A 55.00 55.00 0 0 1 149.67 225.88 L 90.59 284.97 A 137.89 137.89 0 0 0 169.00 317.45 Z M 134.12 210.33 A 55.00 55.00 0 0 1 126.11 191.00 L 42.55 191.00 A 137.89 137.89 0 0 0 75.03 269.41 Z M 126.11 169.00 A 55.00 55.00 0 0 1 134.12 149.67 L 75.03 90.59 A 137.89 137.89 0 0 0 42.55 169.00 Z M 149.67 134.12 A 55.00 55.00 0 0 1 169.00 126.11 L 169.00 42.55 A 137.89 137.89 0 0 0 90.59 75.03 Z"/></svg>