<svg xmlns="http://www.w3.org/2000/svg" width="200" height="200"><!-- Notches=20, Radius=95.49 --><path style="stroke:#999;stroke-width:3;fill:#f5f5f5" d="M 100.0 16.5070341448628 A 83.49 83.49 0 0 1 107.86 16.88 L 114.94 5.68 A 95.49 95.49 0 0 1 123.75 7.51 L 125.80 20.59 A 83.49 83.49 0 0 1 133.16 23.37 L 143.35 14.92 A 95.49 95.49 0 0 1 151.17 19.37 L 149.08 32.45 A 83.49 83.49 0 0 1 155.21 37.37 L 167.52 32.48 A 95.49 95.49 0 0 1 173.58 39.13 L 167.55 50.92 A 83.49 83.49 0 0 1 171.87 57.50 L 185.08 56.65 A 95.49 95.49 0 0 1 188.79 64.85 L 179.41 74.20 A 83.49 83.49 0 0 1 181.48 81.79 L 194.32 85.06 A 95.49 95.49 0 0 1 195.30 94.00 L 183.49 100.00 A 83.49 83.49 0 0 1 183.12 107.86 L 194.32 114.94 A 95.49 95.49 0 0 1 192.49 123.75 L 179.41 125.80 A 83.49 83.49 0 0 1 176.63 133.16 L 185.08 143.35 A 95.49 95.49 0 0 1 180.63 151.17 L 167.55 149.08 A 83.49 83.49 0 0 1 162.63 155.21 L 167.52 167.52 A 95.49 95.49 0 0 1 160.87 173.58 L 149.08 167.55 A 83.49 83.49 0 0 1 142.50 171.87 L 143.35 185.08 A 95.49 95.49 0 0 1 135.15 188.79 L 125.80 179.41 A 83.49 83.49 0 0 1 118.21 181.48 L 114.94 194.32 A 95.49 95.49 0 0 1 106.00 195.30 L 100.00 183.49 A 83.49 83.49 0 0 1 92.14 183.12 L 85.06 194.32 A 95.49 95.49 0 0 1 76.25 192.49 L 74.20 179.41 A 83.49 83.49 0 0 1 66.84 176.63 L 56.65 185.08 A 95.49 95.49 0 0 1 48.83 180.63 L 50.92 167.55 A 83.49 83.49 0 0 1 44.79 162.63 L 32.48 167.52 A 95.49 95.49 0 0 1 26.42 160.87 L 32.45 149.08 A 83.49 83.49 0 0 1 28.13 142.50 L 14.92 143.35 A 95.49 95.49 0 0 1 11.21 135.15 L 20.59 125.80 A 83.49 83.49 0 0 1 18.52 118.21 L 5.68 114.94 A 95.49 95.49 0 0 1 4.70 106.00 L 16.51 100.00 A 83.49 83.49 0 0 1 16.88 92.14 L 5.68 85.06 A 95.49 95.49 0 0 1 7.51 76.25 L 20.59 74.20 A 83.49 83.49 0 0 1 23.37 66.84 L 14.92 56.65 A 95.49 95.49 0 0 1 19.37 48.83 L 32.45 50.92 A 83.49 83.49 0 0 1 37.37 44.79 L 32.48 32.48 A 95.49 95.49 0 0 1 39.13 26.42 L 50.92 32.45 A 83.49 83.49 0 0 1 57.50 28.13 L 56.65 14.92 A 95.49 95.49 0 0 1 64.85 11.21 L 74.20 20.59 A 83.49 83.49 0 0 1 81.79 18.52 L 85.06 5.68 A 95.49 95.49 0 0 1 94.00 4.70 Z M 100 85 A 15 15 0 0 0 100 115 A 15 15 0 0 0 100 85 M 110.00 66.46 A 35.00 35.00 0 0 1 133.54 90.00 L 167.76 90.00 A 68.49 68.49 0 0 0 110.00 32.24 Z M 133.54 110.00 A 35.00 35.00 0 0 1 110.00 133.54 L 110.00 167.76 A 68.49 68.49 0 0 0 167.76 110.00 Z M 90.00 133.54 A 35.00 35.00 0 0 1 66.46 110.00 L 32.24 110.00 A 68.49 68.49 0 0 0 90.00 167.76 Z M 66.46 90.00 A 35.00 35.00 0 0 1 90.00 66.46 L 90.00 32.24 A 68.49 68.49 0 0 0 32.24 90.00 Z"/></svg>