<svg xmlns="http://www.w3.org/2000/svg" width="260" height="260"><!-- Notches=26, Radius=124.14 --><path style="stroke:#999;stroke-width:3;fill:#f5f5f5" d="M 130.0 17.85914438832164 A 112.14 112.14 0 0 1 138.12 18.15 L 144.96 6.76 A 124.14 124.14 0 0 1 153.85 8.17 L 156.84 21.12 A 112.14 112.14 0 0 1 164.65 23.35 L 174.02 13.93 A 124.14 124.14 0 0 1 182.31 17.42 L 182.11 30.70 A 112.14 112.14 0 0 1 189.17 34.74 L 200.52 27.83 A 124.14 124.14 0 0 1 207.74 33.21 L 204.36 46.06 A 112.14 112.14 0 0 1 210.25 51.67 L 222.92 47.68 A 124.14 124.14 0 0 1 228.64 54.63 L 222.29 66.30 A 112.14 112.14 0 0 1 226.66 73.15 L 239.92 72.31 A 124.14 124.14 0 0 1 243.81 80.42 L 234.85 90.23 A 112.14 112.14 0 0 1 237.46 97.93 L 250.53 100.29 A 124.14 124.14 0 0 1 252.37 109.10 L 241.32 116.48 A 112.14 112.14 0 0 1 242.01 124.58 L 254.14 130.00 A 124.14 124.14 0 0 1 253.81 138.99 L 241.32 143.52 A 112.14 112.14 0 0 1 240.05 151.55 L 250.53 159.71 A 124.14 124.14 0 0 1 248.06 168.36 L 234.85 169.77 A 112.14 112.14 0 0 1 231.70 177.26 L 239.92 187.69 A 124.14 124.14 0 0 1 235.45 195.50 L 222.29 193.70 A 112.14 112.14 0 0 1 217.43 200.22 L 222.92 212.32 A 124.14 124.14 0 0 1 216.71 218.84 L 204.36 213.94 A 112.14 112.14 0 0 1 198.09 219.10 L 200.52 232.17 A 124.14 124.14 0 0 1 192.93 237.01 L 182.11 229.30 A 112.14 112.14 0 0 1 174.79 232.81 L 174.02 246.07 A 124.14 124.14 0 0 1 165.50 248.96 L 156.84 238.88 A 112.14 112.14 0 0 1 148.88 240.54 L 144.96 253.24 A 124.14 124.14 0 0 1 136.00 254.00 L 130.00 242.14 A 112.14 112.14 0 0 1 121.88 241.85 L 115.04 253.24 A 124.14 124.14 0 0 1 106.15 251.83 L 103.16 238.88 A 112.14 112.14 0 0 1 95.35 236.65 L 85.98 246.07 A 124.14 124.14 0 0 1 77.69 242.58 L 77.89 229.30 A 112.14 112.14 0 0 1 70.83 225.26 L 59.48 232.17 A 124.14 124.14 0 0 1 52.26 226.79 L 55.64 213.94 A 112.14 112.14 0 0 1 49.75 208.33 L 37.08 212.32 A 124.14 124.14 0 0 1 31.36 205.37 L 37.71 193.70 A 112.14 112.14 0 0 1 33.34 186.85 L 20.08 187.69 A 124.14 124.14 0 0 1 16.19 179.58 L 25.15 169.77 A 112.14 112.14 0 0 1 22.54 162.07 L 9.47 159.71 A 124.14 124.14 0 0 1 7.63 150.90 L 18.68 143.52 A 112.14 112.14 0 0 1 17.99 135.42 L 5.86 130.00 A 124.14 124.14 0 0 1 6.19 121.01 L 18.68 116.48 A 112.14 112.14 0 0 1 19.95 108.45 L 9.47 100.29 A 124.14 124.14 0 0 1 11.94 91.64 L 25.15 90.23 A 112.14 112.14 0 0 1 28.30 82.74 L 20.08 72.31 A 124.14 124.14 0 0 1 24.55 64.50 L 37.71 66.30 A 112.14 112.14 0 0 1 42.57 59.78 L 37.08 47.68 A 124.14 124.14 0 0 1 43.29 41.16 L 55.64 46.06 A 112.14 112.14 0 0 1 61.91 40.90 L 59.48 27.83 A 124.14 124.14 0 0 1 67.07 22.99 L 77.89 30.70 A 112.14 112.14 0 0 1 85.21 27.19 L 85.98 13.93 A 124.14 124.14 0 0 1 94.50 11.04 L 103.16 21.12 A 112.14 112.14 0 0 1 111.12 19.46 L 115.04 6.76 A 124.14 124.14 0 0 1 124.00 6.00 Z M 130 115 A 15 15 0 0 0 130 145 A 15 15 0 0 0 130 115 M 140.00 86.13 A 45.00 45.00 0 0 1 168.64 106.93 L 214.02 92.18 A 92.14 92.14 0 0 0 140.00 38.40 Z M 174.82 125.95 A 45.00 45.00 0 0 1 163.88 159.62 L 191.93 198.23 A 92.14 92.14 0 0 0 220.20 111.21 Z M 147.70 171.37 A 45.00 45.00 0 0 1 112.30 171.37 L 84.25 209.98 A 92.14 92.14 0 0 0 175.75 209.98 Z M 96.12 159.62 A 45.00 45.00 0 0 1 85.18 125.95 L 39.80 111.21 A 92.14 92.14 0 0 0 68.07 198.23 Z M 91.36 106.93 A 45.00 45.00 0 0 1 120.00 86.13 L 120.00 38.40 A 92.14 92.14 0 0 0 45.98 92.18 Z"/></svg>